<?xml version="1.0" encoding="UTF-8"?>
<svg xmlns="http://www.w3.org/2000/svg" xmlns:xlink="http://www.w3.org/1999/xlink" width="13pt" height="9pt" viewBox="0 0 13 9" version="1.1">
<g id="surface1">
<path style=" stroke:none;fill-rule:nonzero;fill:rgb(0%,0%,0%);fill-opacity:1;" d="M 8.917969 3.148438 C 8.855469 3.085938 8.78125 3.054688 8.695312 3.054688 L 4.304688 3.054688 C 4.21875 3.054688 4.144531 3.085938 4.082031 3.148438 C 4.019531 3.210938 3.988281 3.289062 3.988281 3.375 C 3.988281 3.460938 4.019531 3.539062 4.082031 3.601562 L 6.28125 5.851562 C 6.339844 5.914062 6.414062 5.945312 6.5 5.945312 C 6.585938 5.945312 6.660156 5.914062 6.71875 5.851562 L 8.917969 3.601562 C 8.980469 3.539062 9.011719 3.460938 9.011719 3.375 C 9.011719 3.289062 8.980469 3.210938 8.917969 3.148438 Z M 8.917969 3.148438 "/>
</g>
</svg>
